<?xml version="1.0" standalone="no"?><svg xmlns="http://www.w3.org/2000/svg" viewBox="0 0 1440 320"><path fill="#4FD60F" fill-opacity="1" d="M0,128L30,117.3C60,107,120,85,180,64C240,43,300,21,360,53.3C420,85,480,171,540,208C600,245,660,235,720,202.7C780,171,840,117,900,112C960,107,1020,149,1080,192C1140,235,1200,277,1260,272C1320,267,1380,213,1410,186.7L1440,160L1440,320L1410,320C1380,320,1320,320,1260,320C1200,320,1140,320,1080,320C1020,320,960,320,900,320C840,320,780,320,720,320C660,320,600,320,540,320C480,320,420,320,360,320C300,320,240,320,180,320C120,320,60,320,30,320L0,320Z"></path></svg>